<?xml version="1.0" encoding="UTF-8" standalone="no"?>
<svg
   xmlns:dc="http://purl.org/dc/elements/1.1/"
   xmlns:cc="http://creativecommons.org/ns#"
   xmlns:rdf="http://www.w3.org/1999/02/22-rdf-syntax-ns#"
   xmlns:svg="http://www.w3.org/2000/svg"
   xmlns="http://www.w3.org/2000/svg"
   xmlns:sodipodi="http://sodipodi.sourceforge.net/DTD/sodipodi-0.dtd"
   xmlns:inkscape="http://www.inkscape.org/namespaces/inkscape"
   width="77"
   height="8"
   viewBox="0 0 77 8"
   version="1.1"
   id="svg4"
   sodipodi:docname="title-pattern.svg"
   inkscape:version="0.92.4 (5da689c313, 2019-01-14)">
  <metadata
     id="metadata10">
    <rdf:RDF>
      <cc:Work
         rdf:about="">
        <dc:format>image/svg+xml</dc:format>
        <dc:type
           rdf:resource="http://purl.org/dc/dcmitype/StillImage" />
      </cc:Work>
    </rdf:RDF>
  </metadata>
  <defs
     id="defs8" />
  <sodipodi:namedview
     pagecolor="#ffffff"
     bordercolor="#666666"
     borderopacity="1"
     objecttolerance="10"
     gridtolerance="10"
     guidetolerance="10"
     inkscape:pageopacity="0"
     inkscape:pageshadow="2"
     inkscape:window-width="1920"
     inkscape:window-height="1017"
     id="namedview6"
     showgrid="false"
     inkscape:zoom="3.6883117"
     inkscape:cx="-10.03169"
     inkscape:cy="4"
     inkscape:window-x="-8"
     inkscape:window-y="-8"
     inkscape:window-maximized="1"
     inkscape:current-layer="svg4" />
  <path
     fill="#EA693F"
     d="M0 5.6L5.6 0l1.6 1.6-5.6 5.5L0 5.6zm9.9 0L15.4 0 17 1.6l-5.6 5.6-1.5-1.6zm9.8 0L25.2 0l1.6 1.6-5.6 5.6-1.5-1.6zm9.8 0L35.1 0l1.6 1.6-5.6 5.6-1.6-1.6zm9.8 0L44.9 0l1.6 1.6-5.6 5.6c0-.1-1.6-1.6-1.6-1.6zm9.9 0L54.7 0l1.6 1.6-5.6 5.6-1.5-1.6zm9.8 0L64.6 0l1.6 1.6-5.6 5.6L59 5.6zm10.8 0L75.4 0 77 1.6l-5.6 5.6-1.6-1.6z"
     id="path2"
     style="fill:#ffac4c;fill-opacity:1" />
</svg>
